# xmcd CD database file
#
# Track frame offsets:
#	150
#	17663
#	31596
#	53029
#	66652
#	83515
#	95713
#	113513
#	126490
#	148367
#	162488
#
# Disc length: 2420 seconds
#
# Revision: 0
# Processed by: cddbd v1.5.2PL0 Copyright (c) Steve Scherf et al.
# Submitted via: CDex 1.51
#
DISCID=9609720b
DTITLE=Brian Ashley Jones - Courier
DYEAR=2007
DGENRE=Country
TTITLE0=Free to Miss You
TTITLE1=Courier
TTITLE2=Take
TTITLE3=More Than Survive
TTITLE4=Pull'em Up
TTITLE5=Johnny Appleweed
TTITLE6=Think It Over
TTITLE7=Maybe Then
TTITLE8=As Of Yet
TTITLE9=I Ain't Jokin'
TTITLE10=A Song to Move Me
EXTD=YEAR: 2007
EXTT0=
EXTT1=
EXTT2=
EXTT3=
EXTT4=
EXTT5=
EXTT6=
EXTT7=
EXTT8=
EXTT9=
EXTT10=
PLAYORDER=
